<svg width="760" height="430" viewBox="0 0 760 430" fill="none" xmlns="http://www.w3.org/2000/svg">
<rect width="760" height="430" fill="#07111F"/><path d="M520 0h240v430H392C474 318 512 180 520 0Z" fill="#60A5FA" opacity=".08"/><circle cx="34" cy="30" r="5" fill="#60A5FA"/><circle cx="54" cy="30" r="5" fill="#64748B" opacity=".75"/><circle cx="74" cy="30" r="5" fill="#64748B" opacity=".55"/>
<text x="36" y="78" fill="#60A5FA" font-family="Arial" font-size="13" font-weight="800">CONVERSÃO LOCAL</text><text x="36" y="112" fill="#F8FAFC" font-family="Arial" font-size="30" font-weight="800">Contato que converte</text>
<rect x="36" y="148" width="300" height="214" rx="16" fill="#0F172A" stroke="#263A59"/><text x="62" y="188" fill="#F8FAFC" font-family="Arial" font-size="22" font-weight="800">Fale com a equipe</text><text x="62" y="224" fill="#CBD5E1" font-family="Arial" font-size="14">E-mail, WhatsApp e localização com</text><text x="62" y="246" fill="#CBD5E1" font-family="Arial" font-size="14">hierarquia clara.</text><rect x="62" y="278" width="180" height="42" rx="9" fill="#60A5FA"/><text x="88" y="304" fill="#fff" font-family="Arial" font-size="14" font-weight="800">Enviar mensagem</text>
<rect x="386" y="148" width="328" height="214" rx="16" fill="#11223A" stroke="#244467"/><rect x="416" y="184" width="236" height="24" rx="8" fill="#233653"/><rect x="416" y="230" width="268" height="42" rx="8" fill="#08111F" stroke="#263A59"/><rect x="416" y="292" width="190" height="42" rx="8" fill="#60A5FA"/><text x="438" y="318" fill="#fff" font-family="Arial" font-size="14" font-weight="800">WhatsApp integrado</text>
</svg>
