<svg width="760" height="430" viewBox="0 0 760 430" fill="none" xmlns="http://www.w3.org/2000/svg">
<defs><linearGradient id="bg" x1="0" y1="0" x2="1" y2="1"><stop stop-color="#0B1730"/><stop offset=".55" stop-color="#07111F"/><stop offset="1" stop-color="#06101C"/></linearGradient><linearGradient id="blue" x1="0" y1="0" x2="1" y2="1"><stop stop-color="#2563EB"/><stop offset="1" stop-color="#60A5FA"/></linearGradient></defs>
<rect width="760" height="430" fill="url(#bg)"/><path d="M520 0h240v430H392C474 318 512 180 520 0Z" fill="#2563EB" opacity=".08"/>
<circle cx="34" cy="30" r="5" fill="#2563EB"/><circle cx="54" cy="30" r="5" fill="#64748B" opacity=".75"/><circle cx="74" cy="30" r="5" fill="#64748B" opacity=".55"/><rect x="610" y="20" width="104" height="20" rx="10" fill="#132038"/>
<text x="36" y="78" fill="#60A5FA" font-family="Arial" font-size="13" font-weight="800">SITE INSTITUCIONAL</text><text x="36" y="112" fill="#F8FAFC" font-family="Arial" font-size="30" font-weight="800">Clínica Horizonte</text><text x="36" y="150" fill="#CBD5E1" font-family="Arial" font-size="21" font-weight="500">Cuidado, tecnologia e acolhimento em um só lugar.</text>
<rect x="36" y="182" width="150" height="42" rx="9" fill="url(#blue)"/><text x="62" y="208" fill="#fff" font-family="Arial" font-size="14" font-weight="800">Agendar visita</text><rect x="210" y="182" width="118" height="42" rx="9" fill="#101B30" stroke="#263A59"/><text x="235" y="208" fill="#CBD5E1" font-family="Arial" font-size="14" font-weight="700">Serviços</text>
<rect x="430" y="118" width="250" height="190" rx="18" fill="#14243D" stroke="#2C4770"/><circle cx="506" cy="192" r="42" fill="#60A5FA" opacity=".32"/><circle cx="580" cy="202" r="58" fill="#2563EB" opacity=".28"/><rect x="462" y="270" width="206" height="36" rx="10" fill="#08111F" opacity=".88"/>
<rect x="36" y="294" width="204" height="72" rx="14" fill="#11223A" stroke="#263A59"/><text x="60" y="325" fill="#F8FAFC" font-family="Arial" font-size="15" font-weight="800">Especialidades</text><text x="60" y="350" fill="#CBD5E1" font-family="Arial" font-size="13">Cards claros e objetivos</text>
<rect x="262" y="294" width="204" height="72" rx="14" fill="#11223A" stroke="#263A59"/><text x="286" y="325" fill="#F8FAFC" font-family="Arial" font-size="15" font-weight="800">Equipe médica</text><text x="286" y="350" fill="#CBD5E1" font-family="Arial" font-size="13">Confiança no primeiro clique</text>
<rect x="488" y="294" width="204" height="72" rx="14" fill="#11223A" stroke="#263A59"/><text x="512" y="325" fill="#F8FAFC" font-family="Arial" font-size="15" font-weight="800">Contato rápido</text><text x="512" y="350" fill="#CBD5E1" font-family="Arial" font-size="13">WhatsApp bem posicionado</text>
</svg>
