<svg width="760" height="430" viewBox="0 0 760 430" fill="none" xmlns="http://www.w3.org/2000/svg">
<defs><linearGradient id="bg" x1="0" y1="0" x2="1" y2="1"><stop stop-color="#0B1730"/><stop offset=".55" stop-color="#07111F"/><stop offset="1" stop-color="#06101C"/></linearGradient></defs><rect width="760" height="430" fill="url(#bg)"/><path d="M520 0h240v430H392C474 318 512 180 520 0Z" fill="#38BDF8" opacity=".08"/>
<circle cx="34" cy="30" r="5" fill="#38BDF8"/><circle cx="54" cy="30" r="5" fill="#64748B" opacity=".75"/><circle cx="74" cy="30" r="5" fill="#64748B" opacity=".55"/><rect x="610" y="20" width="104" height="20" rx="10" fill="#132038"/>
<text x="36" y="78" fill="#60A5FA" font-family="Arial" font-size="13" font-weight="800">PÁGINAS INTERNAS</text><text x="36" y="112" fill="#F8FAFC" font-family="Arial" font-size="30" font-weight="800">Serviços que explicam valor</text><rect x="36" y="146" width="678" height="56" rx="14" fill="#0F172A" stroke="#263A59"/><text x="60" y="180" fill="#CBD5E1" font-family="Arial" font-size="17" font-weight="600">Estrutura para apresentar diferenciais sem poluição visual</text>
<rect x="36" y="234" width="210" height="112" rx="16" fill="#11223A" stroke="#244467"/><circle cx="68" cy="270" r="18" fill="#38BDF8" opacity=".22"/><text x="60" y="306" fill="#F8FAFC" font-family="Arial" font-size="16" font-weight="800">Consultoria</text><text x="60" y="332" fill="#CBD5E1" font-family="Arial" font-size="12">Descrição curta e escaneável</text>
<rect x="270" y="234" width="210" height="112" rx="16" fill="#11223A" stroke="#244467"/><circle cx="302" cy="270" r="18" fill="#38BDF8" opacity=".22"/><text x="294" y="306" fill="#F8FAFC" font-family="Arial" font-size="16" font-weight="800">Atendimento</text><text x="294" y="332" fill="#CBD5E1" font-family="Arial" font-size="12">Fluxo simples para clientes</text>
<rect x="504" y="234" width="210" height="112" rx="16" fill="#11223A" stroke="#244467"/><circle cx="536" cy="270" r="18" fill="#38BDF8" opacity=".22"/><text x="528" y="306" fill="#F8FAFC" font-family="Arial" font-size="16" font-weight="800">Orçamento</text><text x="528" y="332" fill="#CBD5E1" font-family="Arial" font-size="12">CTA em destaque visual</text>
<line x1="36" y1="384" x2="714" y2="384" stroke="#244467"/><rect x="36" y="392" width="220" height="10" rx="5" fill="#38BDF8"/>
</svg>
