<svg width="760" height="430" viewBox="0 0 760 430" fill="none" xmlns="http://www.w3.org/2000/svg">
<rect width="760" height="430" fill="#07111F"/><path d="M520 0h240v430H392C474 318 512 180 520 0Z" fill="#60A5FA" opacity=".08"/><circle cx="34" cy="30" r="5" fill="#60A5FA"/><circle cx="54" cy="30" r="5" fill="#64748B" opacity=".75"/><circle cx="74" cy="30" r="5" fill="#64748B" opacity=".55"/>
<text x="36" y="78" fill="#60A5FA" font-family="Arial" font-size="13" font-weight="800">CAPTAÇÃO DE LEADS</text><text x="36" y="112" fill="#F8FAFC" font-family="Arial" font-size="30" font-weight="800">Formulário sem fricção</text>
<rect x="36" y="150" width="310" height="226" rx="18" fill="#0F172A" stroke="#263A59"/><text x="62" y="190" fill="#F8FAFC" font-family="Arial" font-size="21" font-weight="800">Dados essenciais</text><text x="62" y="222" fill="#CBD5E1" font-family="Arial" font-size="14">Campos objetivos para iniciar a conversa rapidamente.</text><rect x="62" y="278" width="210" height="42" rx="9" fill="#60A5FA"/><text x="92" y="304" fill="#fff" font-family="Arial" font-size="14" font-weight="800">Enviar pelo WhatsApp</text>
<rect x="394" y="150" width="320" height="226" rx="18" fill="#11223A" stroke="#244467"/><rect x="424" y="186" width="250" height="38" rx="8" fill="#08111F" stroke="#263A59"/><rect x="424" y="244" width="250" height="38" rx="8" fill="#08111F" stroke="#263A59"/><rect x="424" y="302" width="156" height="42" rx="8" fill="#2563EB"/>
</svg>
