<svg width="760" height="430" viewBox="0 0 760 430" fill="none" xmlns="http://www.w3.org/2000/svg">
<rect width="760" height="430" fill="#07111F"/><path d="M520 0h240v430H392C474 318 512 180 520 0Z" fill="#38BDF8" opacity=".08"/><circle cx="34" cy="30" r="5" fill="#38BDF8"/><circle cx="54" cy="30" r="5" fill="#64748B" opacity=".75"/><circle cx="74" cy="30" r="5" fill="#64748B" opacity=".55"/>
<text x="36" y="78" fill="#60A5FA" font-family="Arial" font-size="13" font-weight="800">CAMPANHA COMERCIAL</text><text x="36" y="112" fill="#F8FAFC" font-family="Arial" font-size="30" font-weight="800">Prova social e autoridade</text><rect x="36" y="148" width="678" height="60" rx="14" fill="#0F172A" stroke="#263A59"/><text x="62" y="184" fill="#CBD5E1" font-family="Arial" font-size="17" font-weight="600">Depoimentos, métricas e benefícios próximos da CTA</text>
<rect x="36" y="246" width="196" height="116" rx="16" fill="#11223A" stroke="#244467"/><text x="62" y="298" fill="#38BDF8" font-family="Arial" font-size="42" font-weight="800">98%</text><text x="62" y="330" fill="#CBD5E1" font-family="Arial" font-size="13" font-weight="700">performance</text>
<rect x="280" y="246" width="196" height="116" rx="16" fill="#11223A" stroke="#244467"/><text x="306" y="298" fill="#F8FAFC" font-family="Arial" font-size="34" font-weight="800">+Leads</text><text x="306" y="330" fill="#CBD5E1" font-family="Arial" font-size="13" font-weight="700">captura otimizada</text>
<rect x="524" y="246" width="190" height="116" rx="16" fill="#11223A" stroke="#244467"/><text x="550" y="298" fill="#F8FAFC" font-family="Arial" font-size="36" font-weight="800">SEO</text><text x="550" y="330" fill="#CBD5E1" font-family="Arial" font-size="13" font-weight="700">base configurada</text>
</svg>
