<svg width="760" height="430" viewBox="0 0 760 430" fill="none" xmlns="http://www.w3.org/2000/svg">
<defs><linearGradient id="bg" x1="0" y1="0" x2="1" y2="1"><stop stop-color="#0B1730"/><stop offset=".55" stop-color="#07111F"/><stop offset="1" stop-color="#06101C"/></linearGradient><linearGradient id="blue" x1="0" y1="0" x2="1" y2="1"><stop stop-color="#2563EB"/><stop offset="1" stop-color="#60A5FA"/></linearGradient></defs>
<rect width="760" height="430" fill="url(#bg)"/><path d="M520 0h240v430H392C474 318 512 180 520 0Z" fill="#2563EB" opacity=".08"/><circle cx="34" cy="30" r="5" fill="#2563EB"/><circle cx="54" cy="30" r="5" fill="#64748B" opacity=".75"/><circle cx="74" cy="30" r="5" fill="#64748B" opacity=".55"/>
<text x="36" y="78" fill="#60A5FA" font-family="Arial" font-size="13" font-weight="800">LANDING PAGE</text><text x="36" y="112" fill="#F8FAFC" font-family="Arial" font-size="30" font-weight="800">Oferta direta e mensurável</text>
<rect x="36" y="142" width="146" height="30" rx="15" fill="#10234A" stroke="#244467"/><text x="52" y="162" fill="#60A5FA" font-family="Arial" font-size="12" font-weight="800">Campanha ativa</text><text x="36" y="200" fill="#CBD5E1" font-family="Arial" font-size="22" font-weight="600">Uma página focada em transformar clique em lead.</text><rect x="36" y="236" width="172" height="46" rx="10" fill="url(#blue)"/><text x="64" y="264" fill="#fff" font-family="Arial" font-size="14" font-weight="800">Quero orçamento</text>
<rect x="450" y="130" width="250" height="240" rx="18" fill="#11223A" stroke="#244467"/><text x="480" y="176" fill="#F8FAFC" font-family="Arial" font-size="20" font-weight="800">Plano Comercial</text><text x="480" y="220" fill="#60A5FA" font-family="Arial" font-size="48" font-weight="800">+45%</text><text x="480" y="252" fill="#CBD5E1" font-family="Arial" font-size="14" font-weight="600">mais leads qualificados</text><rect x="480" y="302" width="158" height="42" rx="9" fill="#2563EB"/><text x="510" y="328" fill="#fff" font-family="Arial" font-size="14" font-weight="800">Solicitar</text>
<rect x="36" y="326" width="106" height="14" rx="7" fill="#334155"/><rect x="158" y="326" width="106" height="14" rx="7" fill="#334155"/><rect x="280" y="326" width="106" height="14" rx="7" fill="#334155"/>
</svg>
