<svg width="760" height="430" viewBox="0 0 760 430" fill="none" xmlns="http://www.w3.org/2000/svg">
<rect width="760" height="430" fill="#07111F"/><path d="M520 0h240v430H392C474 318 512 180 520 0Z" fill="#60A5FA" opacity=".08"/><circle cx="34" cy="30" r="5" fill="#60A5FA"/><circle cx="54" cy="30" r="5" fill="#64748B" opacity=".75"/><circle cx="74" cy="30" r="5" fill="#64748B" opacity=".55"/>
<text x="36" y="78" fill="#60A5FA" font-family="Arial" font-size="13" font-weight="800">EXPERIÊNCIA ADAPTÁVEL</text><text x="36" y="112" fill="#F8FAFC" font-family="Arial" font-size="30" font-weight="800">Interface responsiva</text>
<rect x="54" y="128" width="210" height="284" rx="28" fill="#0F172A" stroke="#2D456A"/><rect x="86" y="174" width="144" height="18" rx="6" fill="#fff" opacity=".82"/><rect x="86" y="224" width="122" height="46" rx="11" fill="#2563EB"/><rect x="86" y="296" width="156" height="18" rx="6" fill="#334155"/><rect x="86" y="330" width="116" height="18" rx="6" fill="#334155"/>
<rect x="322" y="152" width="366" height="64" rx="16" fill="#11223A" stroke="#244467"/><text x="350" y="192" fill="#F8FAFC" font-family="Arial" font-size="18" font-weight="800">A mesma operação em qualquer tela</text>
<rect x="322" y="248" width="176" height="118" rx="16" fill="#11223A" stroke="#244467"/><text x="350" y="306" fill="#60A5FA" font-family="Arial" font-size="24" font-weight="800">Mobile</text><rect x="526" y="248" width="162" height="118" rx="16" fill="#11223A" stroke="#244467"/><text x="554" y="306" fill="#F8FAFC" font-family="Arial" font-size="24" font-weight="800">Web</text>
</svg>
