<svg width="760" height="430" viewBox="0 0 760 430" fill="none" xmlns="http://www.w3.org/2000/svg">
<rect width="760" height="430" fill="#07111F"/><path d="M520 0h240v430H392C474 318 512 180 520 0Z" fill="#2563EB" opacity=".08"/><circle cx="34" cy="30" r="5" fill="#2563EB"/><circle cx="54" cy="30" r="5" fill="#64748B" opacity=".75"/><circle cx="74" cy="30" r="5" fill="#64748B" opacity=".55"/>
<text x="36" y="78" fill="#60A5FA" font-family="Arial" font-size="13" font-weight="800">SISTEMA WEB</text><text x="36" y="112" fill="#F8FAFC" font-family="Arial" font-size="30" font-weight="800">Painel operacional</text>
<rect x="36" y="140" width="150" height="252" rx="18" fill="#0F172A" stroke="#263A59"/><rect x="58" y="174" width="104" height="28" rx="8" fill="#2563EB"/><text x="72" y="193" fill="#fff" font-family="Arial" font-size="12" font-weight="700">Dashboard</text><rect x="58" y="220" width="104" height="28" rx="8" fill="#17243A"/><text x="72" y="239" fill="#CBD5E1" font-family="Arial" font-size="12" font-weight="700">Clientes</text><rect x="58" y="266" width="104" height="28" rx="8" fill="#17243A"/><text x="72" y="285" fill="#CBD5E1" font-family="Arial" font-size="12" font-weight="700">Projetos</text><rect x="58" y="312" width="104" height="28" rx="8" fill="#17243A"/><text x="72" y="331" fill="#CBD5E1" font-family="Arial" font-size="12" font-weight="700">Relatórios</text>
<rect x="218" y="140" width="498" height="72" rx="16" fill="#11223A" stroke="#244467"/><text x="244" y="182" fill="#F8FAFC" font-family="Arial" font-size="22" font-weight="800">Resumo em tempo real</text>
<rect x="218" y="244" width="154" height="140" rx="16" fill="#11223A" stroke="#244467"/><text x="244" y="292" fill="#F8FAFC" font-family="Arial" font-size="34" font-weight="800">24</text><text x="244" y="326" fill="#CBD5E1" font-family="Arial" font-size="13" font-weight="700">projetos</text>
<rect x="390" y="244" width="154" height="140" rx="16" fill="#11223A" stroke="#244467"/><text x="416" y="292" fill="#60A5FA" font-family="Arial" font-size="34" font-weight="800">R$ 8k</text><text x="416" y="326" fill="#CBD5E1" font-family="Arial" font-size="13" font-weight="700">faturamento</text>
<rect x="562" y="244" width="154" height="140" rx="16" fill="#11223A" stroke="#244467"/><text x="588" y="292" fill="#F8FAFC" font-family="Arial" font-size="34" font-weight="800">12</text><text x="588" y="326" fill="#CBD5E1" font-family="Arial" font-size="13" font-weight="700">tarefas</text>
</svg>
