<svg width="760" height="430" viewBox="0 0 760 430" fill="none" xmlns="http://www.w3.org/2000/svg">
<rect width="760" height="430" fill="#07111F"/><path d="M520 0h240v430H392C474 318 512 180 520 0Z" fill="#38BDF8" opacity=".08"/><circle cx="34" cy="30" r="5" fill="#38BDF8"/><circle cx="54" cy="30" r="5" fill="#64748B" opacity=".75"/><circle cx="74" cy="30" r="5" fill="#64748B" opacity=".55"/>
<text x="36" y="78" fill="#60A5FA" font-family="Arial" font-size="13" font-weight="800">ROTINAS DIGITAIS</text><text x="36" y="112" fill="#F8FAFC" font-family="Arial" font-size="30" font-weight="800">Gestão de dados organizada</text>
<rect x="36" y="142" width="678" height="248" rx="18" fill="#0F172A" stroke="#263A59"/><text x="62" y="180" fill="#F8FAFC" font-family="Arial" font-size="20" font-weight="800">Clientes e status</text><rect x="548" y="154" width="146" height="34" rx="8" fill="#38BDF8"/><text x="576" y="176" fill="#fff" font-family="Arial" font-size="13" font-weight="800">Novo registro</text>
<line x1="62" y1="218" x2="690" y2="218" stroke="#263A59"/><line x1="62" y1="262" x2="690" y2="262" stroke="#263A59"/><line x1="62" y1="306" x2="690" y2="306" stroke="#263A59"/><line x1="62" y1="350" x2="690" y2="350" stroke="#263A59"/>
<rect x="66" y="232" width="122" height="13" rx="5" fill="#94A3B8" opacity=".28"/><rect x="248" y="232" width="160" height="13" rx="5" fill="#94A3B8" opacity=".22"/><rect x="560" y="224" width="88" height="26" rx="13" fill="#2563EB"/>
<rect x="66" y="276" width="122" height="13" rx="5" fill="#94A3B8" opacity=".28"/><rect x="248" y="276" width="160" height="13" rx="5" fill="#94A3B8" opacity=".22"/><rect x="560" y="268" width="88" height="26" rx="13" fill="#17243A"/>
<rect x="66" y="320" width="122" height="13" rx="5" fill="#94A3B8" opacity=".28"/><rect x="248" y="320" width="160" height="13" rx="5" fill="#94A3B8" opacity=".22"/><rect x="560" y="312" width="88" height="26" rx="13" fill="#2563EB"/>
</svg>
